<!DOCTYPE svg PUBLIC "-//W3C//DTD SVG 20010904//EN" "http://www.w3.org/TR/2001/REC-SVG-20010904/DTD/svg10.dtd">
<svg version="1.0" xmlns="http://www.w3.org/2000/svg" width="1500px" height="556px" viewBox="0 0 1500 556" preserveAspectRatio="xMidYMid meet">
 <g id="layer101" fill="#f28076" stroke="none">
  <path d="M1298.5663 542.1147 c-12.5448 -5.1971 -16.4875 -8.4229 -20.9677 -17.3835 -3.5842 -7.1685 -4.6595 -23.6559 -1.6129 -25.6272 1.0753 -0.7168 1.4337 -1.9713 0.7168 -2.8674 -0.5376 -0.8961 0.8961 -3.405 3.405 -5.1971 2.509 -1.9713 5.0179 -5.5556 5.5556 -8.0645 0.7168 -2.509 1.9713 -4.4803 3.0466 -4.4803 1.0753 0 4.8387 -2.509 8.4229 -5.5556 8.0645 -7.1685 21.6846 -13.4409 34.4086 -16.129 5.3763 -1.0753 10.3943 -2.8674 10.9319 -3.7634 0.7168 -0.8961 15.233 -2.3297 32.2581 -3.0466 35.3047 -1.4337 38.3513 -2.3297 44.4444 -15.0538 4.3011 -9.319 6.6308 -22.7599 3.9427 -22.7599 -1.0753 0 -6.0932 1.6129 -11.2903 3.5842 -33.1541 12.724 -80.8244 10.5735 -111.2903 -4.6595 -13.7993 -6.9892 -30.466 -19.1756 -38.7097 -28.853 -24.3728 -27.4194 -37.6344 -69.534 -32.7957 -103.2258 6.6308 -45.5197 32.7957 -84.5878 71.3262 -106.2724 17.3835 -9.8566 30.1075 -13.4409 50 -14.5161 20.6093 -0.8961 46.595 2.509 62.0072 8.2437 37.276 13.9785 72.4014 54.6595 78.4946 90.681 5.7348 33.6918 4.4803 57.5269 -4.4803 81.362 -5.3763 14.1577 -5.3763 18.4588 0 32.7957 8.0645 21.3262 10.3943 52.8674 5.5556 75.8064 -3.2258 14.8746 -11.828 33.5125 -17.9211 38.3513 -2.509 1.7921 -4.4803 4.3011 -4.4803 5.3763 0 1.0753 -0.7168 1.9713 -1.7921 1.9713 -0.8961 0 -2.8674 2.3297 -4.4803 5.3763 -3.2258 6.2724 -17.0251 14.5161 -32.2581 19.7133 -13.4409 4.3011 -53.5842 8.7814 -68.638 7.7061 -11.1111 -0.8961 -11.2903 -0.8961 -20.0717 6.4516 -9.319 7.8853 -22.9391 14.5161 -29.2115 14.5161 -2.1505 -0.1792 -8.7814 -2.1505 -14.5161 -4.4803z"/>
  <path d="M774.3727 422.043 c-8.2437 -1.2545 -18.8172 -3.7634 -23.2975 -5.5556 -35.4839 -13.2616 -72.2222 -50.8961 -82.6165 -84.4086 -3.7634 -12.9032 -5.914 -29.2115 -3.5842 -29.2115 1.0753 0 1.7921 -0.7168 1.7921 -1.7921 0 -0.8961 -1.2545 -1.7921 -2.8674 -1.7921 -2.6882 0 -2.8674 -1.7921 -1.7921 -15.9498 0.7168 -8.7814 2.3297 -20.4301 3.7634 -25.8065 2.3297 -8.9606 8.9606 -24.1935 11.6487 -26.3441 0.5376 -0.5376 2.509 -4.4803 4.4803 -8.9606 4.1219 -9.1398 29.5699 -36.0215 42.4731 -44.6237 10.5735 -6.9892 23.6559 -12.724 29.3907 -12.724 2.3297 0 4.3011 -0.7168 4.3011 -1.4337 0 -2.3297 25.8065 -5.7348 42.2939 -5.7348 14.3369 0 22.043 1.6129 45.5197 9.8566 l11.6487 3.9427 4.1219 -4.8387 c2.1505 -2.8674 3.9427 -5.7348 3.9427 -6.6308 0 -0.8961 1.4337 -3.2258 3.405 -5.1971 1.7921 -1.9713 4.4803 -5.7348 5.7348 -8.2437 1.4337 -2.509 4.3011 -6.81 6.6308 -9.6774 2.1505 -2.8674 8.0645 -11.4695 13.2616 -19.1756 9.4982 -14.3369 28.3154 -33.5125 32.7957 -33.5125 3.7634 0 6.0932 5.3763 7.8853 18.2796 1.0753 6.2724 2.3297 13.0824 3.0466 15.233 0.7168 2.509 0.3584 4.1219 -0.8961 4.1219 -1.0753 0 -1.9713 2.6882 -1.9713 5.914 0 3.405 -2.3297 18.1004 -5.3763 32.9749 -7.3477 37.4552 -8.4229 69.7133 -3.405 107.5269 2.3297 18.638 3.2258 32.0789 2.509 39.0681 -1.4337 12.0072 -11.6487 38.5305 -20.7885 54.1219 -9.8566 16.4875 -28.853 34.2294 -48.3871 44.9821 -9.319 5.0179 -18.2796 9.319 -19.8925 9.319 -1.4337 0 -5.1971 1.2545 -8.2437 2.6882 -5.1971 2.6882 -14.5161 4.1219 -34.4086 5.3763 -4.4803 0.3584 -14.8746 -0.5376 -23.1183 -1.7921z"/>
  <path d="M1069.8925 423.4767 c-11.4695 -1.2545 -41.7563 -7.8853 -45.5197 -9.8566 -2.1505 -1.0753 -6.0932 -3.7634 -9.1398 -5.914 -2.8674 -2.1505 -7.7061 -4.6595 -10.7527 -5.3763 -3.405 -0.7168 -11.1111 -7.1685 -21.5054 -17.5627 -17.7419 -18.1004 -28.4946 -36.3799 -34.4086 -58.6021 -5.0179 -18.4588 -4.4803 -54.4803 1.0753 -71.6846 16.6667 -53.405 58.6021 -89.2473 113.0824 -96.9534 16.6667 -2.1505 37.8136 -0.5376 47.8495 3.9427 4.1219 1.9713 9.1398 3.405 10.9319 3.405 5.3763 0 16.129 5.0179 29.5699 13.6201 16.3082 10.5735 26.8817 20.6093 30.8244 29.3907 1.7921 3.9427 3.7634 7.1685 4.4803 7.1685 2.509 0 19.1756 34.767 21.5054 44.4444 2.6882 11.4695 3.2258 40.5018 1.0753 54.1219 -0.8961 5.3763 -2.8674 13.0824 -4.6595 17.0251 -1.7921 3.9427 -3.7634 9.6774 -4.4803 12.5448 -1.9713 9.319 -12.0072 24.7312 -23.4767 36.3799 -6.0932 6.0932 -11.6487 11.1111 -12.1864 11.1111 -0.7168 0 -3.2258 2.3297 -5.5556 5.1971 -5.1971 5.914 -24.1935 16.3082 -39.4265 21.3262 -14.3369 4.6595 -37.6344 7.7061 -49.2832 6.2724z"/>
</g>
 <g id="layer102" fill="#7ebce6" stroke="none">
  <path d="M293.5484 422.9391 c-11.6487 -3.5842 -16.8459 -6.9892 -21.3262 -13.7993 -3.7634 -5.7348 -4.4803 -18.4588 -1.2545 -21.6846 1.6129 -1.6129 1.4337 -2.1505 -0.8961 -2.1505 -2.8674 0 -3.0466 -6.2724 -2.6882 -98.9247 l0.5376 -99.1039 4.4803 -8.7814 c8.0645 -15.9498 29.9283 -23.6559 45.8781 -16.129 8.4229 3.9427 16.3082 13.6201 18.8172 22.5806 1.2545 5.1971 1.9713 38.3513 1.9713 107.1685 0.1792 87.4552 -0.1792 100.7168 -2.8674 109.4982 -3.7634 12.9032 -10.3943 19.3548 -22.9391 22.2222 -8.4229 1.9713 -11.1111 1.7921 -19.7133 -0.8961z"/>
  <path d="M146.0573 422.9391 c-0.5376 -0.8961 -4.8387 -1.7921 -9.4982 -1.7921 -11.6487 0 -31.1828 -5.7348 -39.4265 -11.4695 -3.7634 -2.509 -7.8853 -4.6595 -8.9606 -4.6595 -1.2545 0 -6.4516 -2.1505 -11.4695 -4.6595 -11.6487 -5.914 -26.3441 -20.7885 -31.0036 -31.1828 -1.9713 -4.4803 -5.0179 -9.1398 -6.81 -10.5735 -4.3011 -3.0466 -10.7527 -17.7419 -13.6201 -30.6452 -1.2545 -5.3763 -3.2258 -12.724 -4.3011 -16.129 -2.8674 -8.9606 -3.9427 -199.4624 -1.2545 -212.5448 2.509 -12.0072 10.7527 -20.7885 23.6559 -25.0896 14.5161 -4.8387 34.767 0.8961 42.6523 11.828 5.5556 7.8853 9.4982 30.2867 8.6021 49.6416 l-0.7168 16.6667 45.3405 0 c25.2688 0 49.1039 0.8961 54.1219 1.9713 31.1828 6.6308 41.2186 43.0108 17.5627 63.7993 -10.9319 9.4982 -16.8459 10.3943 -65.7706 9.8566 -24.1935 -0.1792 -45.5197 0 -47.491 0.3584 -3.405 0.8961 -3.5842 2.1505 -3.0466 34.2294 0.5376 24.3728 0.1792 34.0502 -1.4337 35.8423 -1.6129 1.7921 -1.6129 2.6882 -0.1792 2.6882 1.0753 0 4.3011 4.6595 7.1685 10.3943 11.4695 22.4014 24.9104 34.767 40.3226 37.0968 4.1219 0.7168 15.7706 0 25.9857 -1.6129 22.043 -3.2258 32.2581 -1.7921 41.7563 6.0932 6.4516 5.3763 13.9785 21.8638 13.9785 30.6452 0 5.914 -8.2437 22.9391 -11.6487 24.1935 -1.4337 0.5376 -2.6882 1.9713 -2.6882 2.8674 0 2.8674 -5.7348 6.6308 -10.2151 6.81 -2.3297 0 -4.1219 0.7168 -4.1219 1.4337 0 1.7921 -26.5233 5.7348 -37.9928 5.7348 -4.6595 0 -8.9606 -0.7168 -9.4982 -1.7921z"/>
  <path d="M401.4337 420.9677 c-5.1971 -1.0753 -9.6774 -3.405 -13.0824 -6.9892 -2.6882 -2.8674 -5.7348 -5.3763 -6.6308 -5.3763 -0.8961 0 -3.0466 -2.6882 -4.8387 -5.7348 -2.8674 -5.1971 -3.2258 -12.1864 -3.5842 -62.3656 -0.3584 -43.7276 0.1792 -60.2151 2.3297 -73.2975 4.1219 -25.8065 15.7706 -52.8674 24.9104 -58.0645 1.4337 -0.7168 2.6882 -3.0466 2.6882 -4.8387 0 -1.9713 0.8961 -3.0466 2.3297 -2.6882 1.0753 0.5376 5.3763 -3.5842 9.319 -8.7814 8.6021 -11.4695 25.6272 -21.6846 50.1792 -30.2867 14.8746 -5.1971 18.1004 -5.5556 39.4265 -5.7348 24.9104 0 52.3298 4.6595 54.1219 9.319 0.5376 1.2545 2.509 2.3297 4.3011 2.3297 5.0179 0 15.9498 5.7348 15.9498 8.4229 0 1.2545 1.6129 2.3297 3.405 2.3297 3.405 0 28.853 23.2975 28.853 26.3441 0 1.0753 2.3297 4.3011 5.1971 7.1685 10.5735 11.1111 26.7025 53.9426 21.5054 57.1685 -0.8961 0.5376 -1.6129 3.0466 -1.4337 5.7348 0 4.3011 0.1792 4.4803 1.4337 1.2545 3.0466 -7.3477 4.1219 12.724 3.405 63.6201 -0.7168 55.1971 -1.0753 57.3477 -10.9319 69.1756 -15.5914 18.4588 -46.595 15.233 -57.1685 -5.914 -3.9427 -8.4229 -4.1219 -10.2151 -5.0179 -69.534 -0.8961 -59.6774 -1.0753 -61.1111 -5.0179 -68.8172 -21.8638 -41.0394 -72.043 -48.7455 -101.6129 -15.7706 -14.5161 15.9498 -15.233 20.2509 -15.233 83.5125 0 60.3943 -0.8961 67.9211 -10.0358 77.4194 -4.3011 4.4803 -21.6846 12.724 -25.448 12.1864 -0.7168 -0.1792 -4.8387 -0.8961 -9.319 -1.7921z"/>
  <path d="M276.3441 126.3441 c-11.828 -3.5842 -16.129 -7.3477 -18.2796 -15.5914 -3.2258 -11.828 -1.2545 -17.0251 11.1111 -28.6738 6.0932 -5.7348 11.2903 -10.3943 11.4695 -10.3943 0.1792 0 2.8674 -2.3297 5.7348 -5.3763 8.2437 -8.2437 18.1004 -6.6308 29.0323 5.0179 3.405 3.5842 10.0358 9.1398 14.6953 12.3656 9.1398 6.2724 11.4695 11.2903 9.6774 20.9677 -2.8674 15.233 -18.638 24.3728 -41.3979 24.1935 -7.8853 0 -17.7419 -1.0753 -22.043 -2.509z"/>
  <path d="M244.6237 77.0609 c-0.7168 -1.0753 -1.9713 -1.4337 -2.8674 -0.7168 -2.8674 1.7921 -7.3477 -11.828 -6.4516 -19.7133 1.6129 -12.3656 3.405 -18.9964 5.0179 -18.9964 0.7168 0 4.6595 3.0466 8.7814 6.81 3.9427 3.9427 7.5269 6.6308 8.0645 6.0932 1.4337 -1.6129 4.4803 8.7814 4.4803 15.7706 0 5.1971 -1.0753 7.3477 -4.4803 9.6774 -5.0179 3.2258 -10.9319 3.7634 -12.5448 1.0753z"/>
  <path d="M336.9176 76.1649 c-1.0753 -1.4337 -2.509 -5.5556 -3.0466 -9.319 -0.8961 -7.1685 1.4337 -10.9319 12.9032 -19.7133 6.81 -5.3763 8.6021 -5.1971 7.7061 0.3584 -0.5376 2.509 -0.1792 5.0179 0.5376 5.5556 0.8961 0.5376 1.6129 3.9427 1.6129 7.8853 0 12.0072 -13.6201 22.5806 -19.7133 15.233z"/>
  <path d="M271.6846 48.5663 c-3.0466 -2.1505 -6.2724 -6.4516 -7.7061 -10.9319 -2.509 -7.1685 -2.3297 -8.0645 1.9713 -17.2043 2.509 -5.3763 4.6595 -11.828 4.6595 -14.1577 0 -2.509 0.8961 -4.4803 1.7921 -4.4803 1.0753 0 1.7921 1.0753 1.7921 2.509 0 1.4337 2.8674 4.3011 6.4516 6.6308 15.7706 9.6774 17.7419 29.0323 3.9427 37.4552 -7.1685 4.3011 -6.4516 4.3011 -12.9032 0.1792z"/>
  <path d="M311.6487 49.6416 c-2.509 -1.4337 -5.1971 -5.0179 -6.6308 -9.1398 -1.9713 -5.914 -1.7921 -7.7061 1.2545 -14.1577 3.5842 -7.5269 15.0538 -20.9677 17.9211 -20.9677 2.3297 0 9.1398 19.3548 9.1398 25.9857 0 6.6308 -5.1971 14.1577 -12.3656 17.9211 -3.9427 1.9713 -5.7348 1.9713 -9.319 0.3584z"/>
</g>
 <g id="layer103" fill="#9dccec" stroke="none">
  <path d="M304.4803 424.1935 c0.8961 -0.8961 3.405 -1.2545 5.7348 -0.8961 3.5842 0.5376 3.405 0.8961 -1.6129 1.6129 -3.5842 0.5376 -5.1971 0.3584 -4.1219 -0.7168z"/>
  <path d="M145.8781 422.5806 c-0.8961 -1.4337 -0.3584 -1.6129 1.9713 -0.7168 1.7921 0.7168 3.7634 0.5376 4.3011 -0.3584 0.5376 -0.8961 6.81 -2.1505 13.6201 -2.6882 12.1864 -1.0753 12.3656 -1.0753 5.3763 1.2545 -5.7348 1.7921 -6.4516 2.509 -3.5842 3.2258 1.9713 0.5376 -1.7921 1.0753 -8.4229 1.2545 -7.3477 0.1792 -12.5448 -0.5376 -13.2616 -1.9713z"/>
  <path d="M297.1326 423.4767 c1.2545 -0.5376 2.8674 -0.3584 3.405 0.1792 0.7168 0.5376 -0.3584 1.0753 -2.3297 0.8961 -1.9713 0 -2.509 -0.5376 -1.0753 -1.0753z"/>
  <path d="M175.2688 421.6846 c1.0753 -0.3584 3.2258 -0.3584 4.4803 0 1.0753 0.5376 0.1792 0.8961 -2.3297 0.8961 -2.509 0 -3.405 -0.3584 -2.1505 -0.8961z"/>
  <path d="M290.8602 421.6846 c0.7168 -0.5376 1.7921 -0.5376 2.509 0 0.5376 0.7168 0 1.2545 -1.2545 1.2545 -1.2545 0 -1.7921 -0.5376 -1.2545 -1.2545z"/>
  <path d="M318.9964 420.9677 c6.2724 -2.509 10.9319 -6.9892 13.6201 -13.2616 1.6129 -3.7634 2.3297 -4.3011 2.509 -1.9713 0 4.3011 -12.9032 17.2043 -17.2043 17.0251 -2.6882 0 -2.509 -0.3584 1.0753 -1.7921z"/>
  <path d="M403.2258 421.1469 c-5.3763 -1.0753 -4.8387 -1.4337 4.4803 -1.6129 13.4409 -0.1792 25.2688 -5.7348 30.8244 -14.3369 2.3297 -3.405 4.1219 -5.1971 4.1219 -4.1219 0 4.6595 -11.4695 14.6953 -20.7885 18.2796 -5.3763 1.9713 -10.3943 3.405 -11.1111 3.405 -0.7168 -0.1792 -4.1219 -0.8961 -7.5269 -1.6129z"/>
  <path d="M593.3691 420.9677 c-3.2258 -1.0753 -5.5556 -2.1505 -5.1971 -2.509 0.3584 -0.5376 4.3011 0.1792 8.7814 1.6129 8.7814 2.8674 5.914 3.5842 -3.5842 0.8961z"/>
  <path d="M128.6738 419.8925 c2.1505 -0.3584 5.7348 -0.3584 8.0645 0 2.1505 0.3584 0.3584 0.7168 -4.1219 0.7168 -4.4803 0 -6.2724 -0.3584 -3.9427 -0.7168z"/>
  <path d="M187.8136 419.8925 c2.1505 -0.3584 3.5842 -1.6129 3.0466 -2.509 -0.7168 -0.8961 1.7921 -1.6129 5.1971 -1.6129 5.1971 0 6.4516 -0.7168 6.4516 -3.5842 0 -1.9713 1.2545 -3.5842 2.6882 -3.5842 1.6129 0 5.0179 -2.1505 7.5269 -4.8387 4.1219 -4.4803 4.3011 -4.4803 2.509 -0.8961 -1.2545 2.3297 -3.405 4.6595 -4.8387 5.1971 -1.4337 0.5376 -2.509 1.7921 -2.509 2.6882 0 2.8674 -5.7348 6.6308 -10.2151 6.81 -2.3297 0 -4.1219 0.8961 -4.1219 1.7921 0 1.0753 -2.1505 1.6129 -4.8387 1.6129 -4.3011 -0.3584 -4.4803 -0.3584 -0.8961 -1.0753z"/>
  <path d="M280.1075 417.3835 c-8.2437 -5.1971 -7.3477 -6.4516 0.8961 -1.4337 8.2437 5.0179 8.4229 5.1971 6.4516 5.1971 -0.8961 0 -4.3011 -1.7921 -7.3477 -3.7634z"/>
  <path d="M612.0071 419.1756 c3.9427 -0.8961 10.3943 -4.3011 14.3369 -7.3477 6.0932 -4.8387 6.6308 -5.0179 2.8674 -0.8961 -5.0179 5.5556 -14.3369 10.2151 -20.2509 10.0358 -2.6882 -0.1792 -1.6129 -0.7168 3.0466 -1.7921z"/>
  <path d="M119.7133 418.1003 c1.2545 -0.5376 2.8674 -0.3584 3.405 0.1792 0.7168 0.5376 -0.3584 1.0753 -2.3297 0.8961 -1.9713 0 -2.509 -0.5376 -1.0753 -1.0753z"/>
  <path d="M388.3513 413.9785 c-2.6882 -2.8674 -5.7348 -5.3763 -6.6308 -5.3763 -2.509 0 -7.1685 -9.8566 -6.9892 -14.6953 0.1792 -3.5842 0.3584 -3.5842 1.0753 -0.5376 1.4337 6.4516 4.4803 13.4409 6.0932 13.4409 0.8961 0 4.3011 2.8674 7.7061 6.2724 3.5842 3.405 5.7348 6.2724 4.8387 6.2724 -0.7168 0 -3.5842 -2.3297 -6.0932 -5.3763z"/>
  <path d="M104.8387 413.9785 c-3.9427 -1.9713 -9.1398 -4.8387 -11.6487 -6.0932 -2.509 -1.4337 -6.4516 -3.405 -8.9606 -4.4803 -3.9427 -1.6129 -3.7634 -1.6129 1.7921 -0.7168 3.405 0.5376 8.0645 2.509 10.0358 4.4803 2.1505 1.7921 7.7061 4.8387 12.5448 6.81 4.8387 1.7921 7.5269 3.405 6.0932 3.405 -1.4337 0 -5.914 -1.4337 -9.8566 -3.405z"/>
  <path d="M583.1541 415.4122 c-0.7168 -1.2545 -0.5376 -1.4337 0.7168 -0.7168 1.2545 0.7168 2.1505 1.6129 2.1505 2.1505 0 1.4337 -1.6129 0.7168 -2.8674 -1.4337z"/>
  <path d="M577.7778 411.8279 c-0.7168 -1.2545 -0.5376 -1.4337 0.7168 -0.7168 2.1505 1.2545 2.8674 2.8674 1.4337 2.8674 -0.5376 0 -1.4337 -0.8961 -2.1505 -2.1505z"/>
  <path d="M271.3262 408.2437 c-0.7168 -1.2545 -0.5376 -1.4337 0.7168 -0.7168 2.1505 1.2545 2.8674 2.8674 1.4337 2.8674 -0.5376 0 -1.4337 -0.8961 -2.1505 -2.1505z"/>
  <path d="M574.1935 406.4516 c-0.7168 -1.2545 -0.5376 -1.4337 0.7168 -0.7168 1.2545 0.7168 2.1505 1.6129 2.1505 2.1505 0 1.4337 -1.6129 0.7168 -2.8674 -1.4337z"/>
  <path d="M268.8172 403.2258 c0 -1.2545 0.5376 -1.7921 1.2545 -1.2545 0.5376 0.7168 0.5376 1.7921 0 2.509 -0.7168 0.5376 -1.2545 0 -1.2545 -1.2545z"/>
  <path d="M634.5878 401.4337 c2.509 -5.5556 3.405 -6.4516 3.405 -4.3011 0 1.0753 -1.2545 3.405 -2.8674 5.3763 -2.509 3.2258 -2.509 3.2258 -0.5376 -1.0753z"/>
  <path d="M571.6846 401.4337 c0 -1.2545 0.5376 -1.7921 1.2545 -1.2545 0.5376 0.7168 0.5376 1.7921 0 2.509 -0.7168 0.5376 -1.2545 0 -1.2545 -1.2545z"/>
  <path d="M335.1255 399.6416 c0 -1.2545 0.5376 -1.7921 1.2545 -1.2545 0.5376 0.7168 0.5376 1.7921 0 2.509 -0.7168 0.5376 -1.2545 0 -1.2545 -1.2545z"/>
  <path d="M65.9498 393.5484 c-7.3477 -5.5556 -15.0538 -14.5161 -18.2796 -20.7885 -0.7168 -1.4337 0.5376 -0.1792 2.6882 2.6882 5.5556 7.1685 13.7993 15.4122 20.4301 20.2509 3.0466 2.1505 4.8387 3.9427 4.3011 3.9427 -0.5376 0 -4.6595 -2.6882 -9.1398 -6.0932z"/>
  <path d="M442.8315 394.9821 c0 -1.9713 0.5376 -2.509 1.0753 -1.0753 0.5376 1.2545 0.3584 2.8674 -0.1792 3.405 -0.5376 0.7168 -1.0753 -0.3584 -0.8961 -2.3297z"/>
  <path d="M569.1756 392.2939 c-0.5376 -3.0466 -0.8961 -30.2867 -0.7168 -60.5735 l0.3584 -54.8387 1.0753 60.0358 c0.5376 32.9749 0.7168 60.2151 0.7168 60.5735 -0.1792 0.1792 -0.7168 -2.1505 -1.4337 -5.1971z"/>
  <path d="M336.9176 394.2652 c0 -1.2545 0.5376 -1.7921 1.2545 -1.2545 0.5376 0.7168 0.5376 1.7921 0 2.509 -0.7168 0.5376 -1.2545 0 -1.2545 -1.2545z"/>
  <path d="M218.638 392.4731 c0 -1.2545 0.5376 -1.7921 1.2545 -1.2545 0.5376 0.7168 0.5376 1.7921 0 2.509 -0.7168 0.5376 -1.2545 0 -1.2545 -1.2545z"/>
  <path d="M638.3513 390.681 c0 -2.509 0.3584 -3.405 0.8961 -2.1505 0.3584 1.0753 0.3584 3.2258 0 4.4803 -0.5376 1.0753 -0.8961 0.1792 -0.8961 -2.3297z"/>
  <path d="M268.8172 391.0394 c0 -0.7168 0.8961 -2.3297 2.1505 -3.5842 1.6129 -1.6129 1.4337 -2.1505 -0.8961 -2.1505 -2.8674 0 -3.0466 -6.81 -2.8674 -97.1326 0 -55.7348 0.7168 -98.9247 1.7921 -100.8961 1.2545 -2.6882 1.4337 -1.9713 0.5376 2.6882 -0.7168 4.6595 -0.5376 5.5556 0.8961 3.5842 1.6129 -2.1505 1.9713 -1.7921 2.1505 1.7921 0.7168 9.8566 -0.7168 26.1649 -2.3297 28.1362 -1.9713 2.509 -1.4337 158.4229 0.5376 157.1685 1.6129 -0.8961 3.405 3.7634 3.405 8.4229 0 1.7921 -1.2545 3.405 -2.6882 3.405 -1.4337 0 -2.6882 -0.7168 -2.6882 -1.4337z"/>
  <path d="M445.1613 334.2294 c0 -31.5412 0.3584 -44.2652 0.5376 -28.1362 0.3584 16.129 0.3584 41.9355 0 57.3477 -0.1792 15.4122 -0.5376 2.3297 -0.5376 -29.2115z"/>
  <path d="M220.0717 382.6165 c-0.5376 -3.9427 -1.6129 -9.1398 -2.1505 -11.6487 -0.7168 -2.509 0 -1.7921 1.6129 1.7921 1.6129 3.405 2.509 8.6021 2.3297 11.6487 -0.5376 5.0179 -0.7168 4.8387 -1.7921 -1.7921z"/>
  <path d="M339.2473 375.448 c0 -7.8853 0.3584 -10.9319 0.7168 -6.6308 0.3584 4.1219 0.3584 10.5735 0 14.3369 -0.3584 3.5842 -0.7168 0.1792 -0.7168 -7.7061z"/>
  <path d="M373.4767 338.7097 c0 -28.1362 0.3584 -39.6057 0.5376 -25.448 0.3584 13.9785 0.3584 36.9176 0 51.0753 -0.1792 13.9785 -0.5376 2.509 -0.5376 -25.6272z"/>
  <path d="M640.1434 380.8244 c-0.5376 -4.1219 -4.3011 -93.0107 -4.6595 -113.7993 -0.3584 -14.3369 -2.509 -22.5806 -9.4982 -36.2007 -2.3297 -4.8387 -3.7634 -8.6021 -3.2258 -8.6021 4.4803 0 18.638 45.3405 15.0538 47.6702 -0.8961 0.5376 -1.6129 3.0466 -1.4337 5.7348 0 4.3011 0.1792 4.4803 1.4337 1.2545 2.8674 -6.9892 3.9427 11.828 3.405 60.0358 -0.3584 26.1649 -0.8961 45.8781 -1.0753 43.9068z"/>
  <path d="M43.7276 365.233 c-0.7168 -2.3297 -2.6882 -5.1971 -4.4803 -6.4516 -3.405 -2.3297 -8.7814 -11.2903 -8.7814 -14.1577 0.1792 -0.7168 1.7921 1.6129 3.7634 5.3763 1.9713 3.7634 4.8387 7.3477 6.2724 7.8853 2.8674 1.0753 6.81 9.319 5.3763 10.7527 -0.3584 0.5376 -1.2545 -1.0753 -2.1505 -3.405z"/>
  <path d="M215.0538 364.1577 c0 -1.0753 -2.1505 -4.4803 -4.8387 -7.8853 -3.9427 -4.8387 -4.1219 -5.1971 -0.7168 -2.3297 4.8387 4.1219 8.0645 9.6774 6.6308 11.2903 -0.5376 0.5376 -1.0753 0 -1.0753 -1.0753z"/>
  <path d="M146.595 350 c1.0753 -0.3584 3.2258 -0.3584 4.4803 0 1.0753 0.5376 0.1792 0.8961 -2.3297 0.8961 -2.509 0 -3.405 -0.3584 -2.1505 -0.8961z"/>
  <path d="M200.7168 349.4624 c-1.6129 -1.0753 -1.7921 -1.7921 -0.5376 -1.7921 1.0753 0 2.6882 0.8961 3.2258 1.7921 1.4337 2.1505 0.7168 2.1505 -2.6882 0z"/>
  <path d="M135.8423 348.2079 c1.2545 -0.5376 2.8674 -0.3584 3.405 0.1792 0.7168 0.5376 -0.3584 1.0753 -2.3297 0.8961 -1.9713 0 -2.509 -0.5376 -1.0753 -1.0753z"/>
  <path d="M158.2437 348.2079 c1.6129 -0.3584 4.1219 -0.3584 5.3763 0 1.0753 0.5376 -0.1792 0.8961 -3.2258 0.8961 -2.8674 0 -3.9427 -0.3584 -2.1505 -0.8961z"/>
  <path d="M128.1362 345.8781 c-0.5376 -1.0753 0.1792 -1.2545 1.6129 -0.7168 3.2258 1.2545 3.7634 2.509 1.2545 2.509 -1.0753 0 -2.3297 -0.7168 -2.8674 -1.7921z"/>
  <path d="M168.9964 346.4158 c1.6129 -0.3584 4.1219 -0.3584 5.3763 0 1.0753 0.5376 -0.1792 0.8961 -3.2258 0.8961 -2.8674 0 -3.9427 -0.3584 -2.1505 -0.8961z"/>
  <path d="M193.19 346.4158 c1.2545 -0.5376 2.8674 -0.3584 3.405 0.1792 0.7168 0.5376 -0.3584 1.0753 -2.3297 0.8961 -1.9713 0 -2.509 -0.5376 -1.0753 -1.0753z"/>
  <path d="M182.4373 344.6237 c1.0753 -0.3584 3.2258 -0.3584 4.4803 0 1.0753 0.5376 0.1792 0.8961 -2.3297 0.8961 -2.509 0 -3.405 -0.3584 -2.1505 -0.8961z"/>
  <path d="M122.5806 341.9355 c-0.7168 -1.2545 -0.5376 -1.4337 0.7168 -0.7168 2.1505 1.2545 2.8674 2.8674 1.4337 2.8674 -0.5376 0 -1.4337 -0.8961 -2.1505 -2.1505z"/>
  <path d="M271.3262 294.8029 c0 -27.5986 0.3584 -38.7097 0.5376 -24.552 0.3584 14.1577 0.3584 36.7383 0 50.1792 -0.1792 13.4409 -0.5376 1.9713 -0.5376 -25.6272z"/>
  <path d="M27.957 339.6057 c-0.5376 -1.6129 -1.0753 -3.9427 -0.8961 -5.0179 0 -1.2545 0.8961 -0.1792 1.7921 2.1505 0.8961 2.3297 1.4337 4.6595 0.8961 5.0179 -0.3584 0.3584 -1.0753 -0.5376 -1.7921 -2.1505z"/>
  <path d="M114.5161 335.6631 l-4.3011 -5.0179 5.0179 4.3011 c4.4803 4.1219 5.7348 5.5556 4.3011 5.5556 -0.3584 0 -2.509 -2.1505 -5.0179 -4.8387z"/>
  <path d="M24.1935 326.1649 c-0.7168 -3.0466 -0.8961 -6.0932 -0.3584 -6.4516 0.3584 -0.5376 1.2545 1.7921 1.9713 4.8387 1.4337 7.5269 0 8.9606 -1.6129 1.6129z"/>
  <path d="M104.1219 321.6846 c-2.8674 -4.4803 -6.0932 -10.5735 -7.3477 -13.4409 -1.2545 -3.0466 -3.405 -5.3763 -4.6595 -5.3763 -3.0466 0 -3.405 -4.6595 -0.5376 -6.4516 1.2545 -0.7168 1.7921 -11.828 1.4337 -34.4086 -0.3584 -25.2688 0 -33.3333 1.6129 -33.6918 1.2545 -0.1792 1.6129 -0.1792 0.8961 0.3584 -0.8961 0.3584 -1.0753 15.5914 -0.8961 33.871 0.5376 24.3728 0.1792 34.0502 -1.4337 35.8423 -1.6129 1.7921 -1.6129 2.6882 -0.1792 2.6882 1.0753 0 4.1219 4.3011 6.6308 9.4982 2.6882 5.0179 6.2724 11.4695 8.2437 14.3369 1.9713 2.6882 3.0466 4.8387 2.3297 4.8387 -0.5376 0 -3.2258 -3.5842 -6.0932 -8.0645z"/>
  <path d="M20.6093 308.2437 c-0.7168 -3.0466 -0.8961 -6.0932 -0.3584 -6.4516 0.5376 -0.5376 1.4337 1.6129 2.1505 4.6595 0.7168 3.0466 0.8961 6.0932 0.3584 6.4516 -0.5376 0.5376 -1.4337 -1.6129 -2.1505 -4.6595z"/>
  <path d="M18.2796 290.3226 c0 -3.405 0.3584 -4.8387 0.8961 -3.0466 0.3584 1.6129 0.3584 4.4803 0 6.2724 -0.5376 1.6129 -0.8961 0.1792 -0.8961 -3.2258z"/>
  <path d="M372.9391 282.0789 c0 -1.9713 0.5376 -2.509 1.0753 -1.0753 0.5376 1.2545 0.3584 2.8674 -0.1792 3.405 -0.5376 0.7168 -1.0753 -0.3584 -0.8961 -2.3297z"/>
  <path d="M375.6272 267.9211 c1.7921 -15.9498 4.1219 -21.5054 3.0466 -7.1685 -0.5376 6.9892 -1.7921 13.7993 -2.6882 15.233 -0.8961 1.6129 -1.0753 -1.4337 -0.3584 -8.0645z"/>
  <path d="M446.4158 274.1935 c0 -1.4337 0.7168 -3.9427 1.6129 -5.3763 2.1505 -3.2258 2.1505 -0.3584 0 4.4803 -1.0753 2.3297 -1.6129 2.6882 -1.6129 0.8961z"/>
  <path d="M566.3082 274.1935 c0 -1.2545 0.5376 -1.7921 1.2545 -1.2545 0.5376 0.7168 0.5376 1.7921 0 2.509 -0.7168 0.5376 -1.2545 0 -1.2545 -1.2545z"/>
  <path d="M562.9032 265.7706 c-1.7921 -4.6595 -1.7921 -4.8387 0.7168 -1.6129 1.4337 1.9713 2.6882 4.1219 2.6882 5.0179 0 2.6882 -1.2545 1.4337 -3.405 -3.405z"/>
  <path d="M449.8208 263.9785 c0 -1.0753 1.6129 -3.7634 3.7634 -6.0932 l3.5842 -4.3011 -3.0466 5.3763 c-4.3011 6.9892 -4.3011 7.1685 -4.3011 5.0179z"/>
  <path d="M18.4588 184.5878 c0 -43.9068 0.3584 -82.0788 1.0753 -85.1255 1.0753 -5.0179 0.7168 134.2294 -0.3584 155.0179 -0.3584 5.3763 -0.7168 -25.9857 -0.7168 -69.8925z"/>
  <path d="M552.1505 250.7168 c-4.3011 -5.0179 -12.0072 -11.2903 -17.0251 -14.1577 -9.6774 -5.5556 -10.2151 -7.3477 -0.7168 -2.509 6.4516 3.2258 22.4014 17.7419 24.9104 22.5806 2.6882 4.8387 1.4337 3.9427 -7.1685 -5.914z"/>
  <path d="M461.4695 247.491 c5.5556 -6.2724 19.8925 -16.3082 23.1183 -16.3082 1.0753 0 -1.6129 2.1505 -6.0932 4.6595 -4.4803 2.509 -11.2903 7.5269 -15.233 11.1111 -6.9892 6.4516 -6.9892 6.6308 -1.7921 0.5376z"/>
  <path d="M379.9283 245.5197 c0 -1.2545 0.5376 -1.7921 1.2545 -1.2545 0.5376 0.7168 0.5376 1.7921 0 2.509 -0.7168 0.5376 -1.2545 0 -1.2545 -1.2545z"/>
  <path d="M87.8136 241.9355 c0 -1.2545 0.5376 -1.7921 1.2545 -1.2545 0.5376 0.7168 0.5376 1.7921 0 2.509 -0.7168 0.5376 -1.2545 0 -1.2545 -1.2545z"/>
  <path d="M381.7204 241.0394 c0 -0.8961 0.8961 -3.0466 1.7921 -4.4803 0.8961 -1.4337 1.7921 -1.7921 1.7921 -0.8961 0 1.0753 -0.8961 3.0466 -1.7921 4.4803 -0.8961 1.4337 -1.7921 1.9713 -1.7921 0.8961z"/>
  <path d="M339.2473 222.2222 c0 -7.3477 0.3584 -10.3943 0.7168 -6.6308 0.3584 3.5842 0.3584 9.6774 0 13.4409 -0.3584 3.5842 -0.7168 0.5376 -0.7168 -6.81z"/>
  <path d="M385.3047 232.2581 c0 -2.1505 6.9892 -15.0538 8.7814 -16.3082 1.0753 -0.5376 -0.3584 2.8674 -2.8674 7.5269 -5.3763 9.8566 -5.914 10.5735 -5.914 8.7814z"/>
  <path d="M487.9928 229.9283 c0.7168 -0.5376 1.7921 -0.5376 2.509 0 0.5376 0.7168 0 1.2545 -1.2545 1.2545 -1.2545 0 -1.7921 -0.5376 -1.2545 -1.2545z"/>
  <path d="M513.4409 229.3907 l-7.1685 -1.2545 6.2724 -0.1792 c3.405 0 7.8853 0.5376 9.8566 1.4337 4.3011 1.7921 1.2545 1.7921 -8.9606 0z"/>
  <path d="M151.0753 228.1362 c6.6308 -0.3584 17.2043 -0.3584 23.2975 0 6.0932 0.3584 0.7168 0.5376 -12.1864 0.5376 -12.724 0 -17.7419 -0.1792 -11.1111 -0.5376z"/>
  <path d="M495.1613 228.1362 c1.6129 -0.3584 4.4803 -0.3584 6.2724 0 1.6129 0.5376 0.1792 0.8961 -3.2258 0.8961 -3.405 0 -4.8387 -0.3584 -3.0466 -0.8961z"/>
  <path d="M106.2724 226.3441 c4.6595 -0.3584 12.1864 -0.3584 17.0251 0 4.6595 0.3584 0.7168 0.5376 -8.6021 0.5376 -9.319 0 -13.2616 -0.1792 -8.4229 -0.5376z"/>
  <path d="M187.276 226.7025 c1.0753 -0.3584 5.1971 -1.6129 9.4982 -2.6882 8.9606 -2.3297 18.638 -10.3943 21.8638 -17.9211 1.2545 -3.0466 2.6882 -5.1971 3.0466 -4.6595 1.6129 1.6129 -4.8387 11.4695 -10.9319 16.8459 -5.914 5.1971 -16.4875 9.4982 -22.5806 9.1398 -1.4337 0 -1.7921 -0.3584 -0.8961 -0.7168z"/>
  <path d="M618.2795 217.0251 c-0.8961 -1.9713 -4.1219 -3.9427 -7.1685 -4.6595 -4.6595 -1.0753 -5.1971 -1.7921 -4.3011 -5.7348 1.0753 -3.9427 -0.1792 -5.914 -7.5269 -12.5448 l-8.7814 -8.0645 8.6021 6.81 c4.8387 3.7634 9.8566 9.1398 11.4695 12.1864 1.6129 3.0466 3.9427 6.2724 5.1971 6.9892 2.509 1.4337 6.9892 8.4229 5.3763 8.4229 -0.5376 0 -1.7921 -1.6129 -2.8674 -3.405z"/>
  <path d="M396.9534 211.4695 c0.5376 -0.8961 1.4337 -1.7921 1.9713 -1.7921 0.5376 0 0.3584 0.8961 -0.1792 1.7921 -0.5376 1.0753 -1.4337 1.7921 -1.9713 1.7921 -0.5376 0 -0.3584 -0.7168 0.1792 -1.7921z"/>
  <path d="M402.8674 205.1971 c0.3584 -2.6882 1.6129 -3.9427 3.2258 -3.2258 3.405 1.2545 3.0466 3.5842 -0.8961 5.7348 -2.8674 1.6129 -3.0466 1.2545 -2.3297 -2.509z"/>
  <path d="M337.4552 197.1326 c0 -5.3763 0.3584 -7.7061 0.7168 -4.8387 0.3584 2.6882 0.3584 6.9892 0 9.8566 -0.3584 2.6882 -0.7168 0.3584 -0.7168 -5.0179z"/>
  <path d="M411.2903 197.1326 c1.7921 -1.9713 3.5842 -3.5842 4.1219 -3.5842 0.5376 0 -0.5376 1.6129 -2.3297 3.5842 -1.7921 1.9713 -3.5842 3.5842 -4.1219 3.5842 -0.5376 0 0.5376 -1.6129 2.3297 -3.5842z"/>
  <path d="M222.7599 189.9642 c0 -5.3763 0.3584 -7.7061 0.7168 -4.8387 0.3584 2.6882 0.3584 6.9892 0 9.8566 -0.3584 2.6882 -0.7168 0.3584 -0.7168 -5.0179z"/>
  <path d="M415.7706 191.0394 c0 -0.3584 1.4337 -1.7921 3.2258 -3.0466 2.6882 -2.3297 2.8674 -2.1505 0.5376 0.7168 -2.3297 2.8674 -3.7634 3.7634 -3.7634 2.3297z"/>
  <path d="M334.5878 182.4373 c-0.7168 -2.6882 -3.9427 -8.0645 -6.9892 -11.6487 -5.1971 -6.0932 -5.3763 -6.4516 -0.7168 -2.3297 5.7348 5.1971 10.5735 13.6201 9.4982 16.6667 -0.3584 1.2545 -1.2545 0 -1.7921 -2.6882z"/>
  <path d="M421.1469 183.871 c0 -0.3584 1.2545 -1.2545 2.8674 -1.7921 1.4337 -0.5376 2.1505 -0.3584 1.6129 0.7168 -1.0753 1.7921 -4.4803 2.509 -4.4803 1.0753z"/>
  <path d="M585.1254 181.8996 c-2.8674 -1.4337 -4.1219 -2.509 -2.509 -2.6882 1.4337 0 4.3011 1.2545 6.2724 2.6882 4.1219 3.2258 3.2258 3.2258 -3.7634 0z"/>
  <path d="M270.6093 181.0036 c0 -1.2545 0.5376 -1.7921 1.2545 -1.2545 0.5376 0.7168 0.5376 1.7921 0 2.509 -0.7168 0.5376 -1.2545 0 -1.2545 -1.2545z"/>
  <path d="M277.7778 181.0036 c0 -1.2545 0.5376 -1.7921 1.2545 -1.2545 0.5376 0.7168 0.5376 1.7921 0 2.509 -0.7168 0.5376 -1.2545 0 -1.2545 -1.2545z"/>
  <path d="M428.3154 180.2867 c0 -0.5376 1.6129 -1.7921 3.5842 -2.8674 1.9713 -1.0753 3.5842 -1.4337 3.5842 -1.0753 0 0.5376 -1.6129 1.7921 -3.5842 2.8674 -1.9713 1.0753 -3.5842 1.4337 -3.5842 1.0753z"/>
  <path d="M220.4301 177.4194 c0 -1.2545 0.5376 -1.7921 1.2545 -1.2545 0.5376 0.7168 0.5376 1.7921 0 2.509 -0.7168 0.5376 -1.2545 0 -1.2545 -1.2545z"/>
  <path d="M575.0896 177.5986 c3.5842 -2.3297 -7.8853 -7.8853 -13.4409 -6.6308 -3.405 0.8961 -4.3011 0.3584 -4.3011 -2.1505 0 -2.3297 -2.1505 -3.9427 -6.6308 -5.3763 l-6.81 -1.9713 6.2724 1.0753 c3.405 0.3584 7.1685 1.9713 8.2437 3.405 1.0753 1.4337 3.2258 2.509 4.8387 2.509 4.8387 0 15.5914 5.914 15.5914 8.4229 0 1.2545 -1.4337 2.3297 -3.0466 2.3297 -2.6882 0 -2.6882 -0.3584 -0.7168 -1.6129z"/>
  <path d="M274.1935 174.0143 c0.8961 -1.9713 2.6882 -4.1219 3.7634 -4.8387 1.0753 -0.5376 0.5376 0.8961 -1.0753 3.5842 -3.5842 5.3763 -5.3763 6.2724 -2.6882 1.2545z"/>
  <path d="M215.4122 168.4588 c-3.405 -4.4803 -4.8387 -5.1971 -8.9606 -4.3011 -3.9427 0.8961 -4.4803 0.7168 -2.509 -1.2545 1.7921 -1.9713 1.4337 -2.8674 -1.7921 -4.6595 -2.3297 -1.2545 -3.2258 -2.1505 -2.1505 -2.3297 3.0466 0 16.4875 10.2151 18.638 14.3369 2.8674 5.1971 1.2545 4.4803 -3.2258 -1.7921z"/>
  <path d="M445.6989 170.0717 c1.2545 -1.2545 2.6882 -1.7921 3.2258 -1.2545 0.5376 0.5376 -0.3584 1.6129 -2.1505 2.1505 -2.509 1.0753 -2.6882 0.8961 -1.0753 -0.8961z"/>
  <path d="M281.362 167.5627 c0 -0.3584 2.509 -1.7921 5.5556 -3.405 4.1219 -2.1505 5.0179 -2.1505 3.5842 -0.3584 -1.9713 2.1505 -9.1398 5.1971 -9.1398 3.7634z"/>
  <path d="M453.405 166.6667 c1.4337 -0.8961 3.5842 -1.7921 4.4803 -1.7921 1.0753 0 0.5376 0.8961 -0.8961 1.7921 -1.4337 0.8961 -3.405 1.7921 -4.4803 1.7921 -0.8961 0 -0.5376 -0.8961 0.8961 -1.7921z"/>
  <path d="M317.2043 163.0824 c-1.6129 -1.0753 -1.7921 -1.7921 -0.5376 -1.7921 1.0753 0 2.6882 0.8961 3.2258 1.7921 1.4337 2.1505 0.7168 2.1505 -2.6882 0z"/>
  <path d="M461.1111 163.6201 c0.7168 -0.5376 1.7921 -0.5376 2.509 0 0.5376 0.7168 0 1.2545 -1.2545 1.2545 -1.2545 0 -1.7921 -0.5376 -1.2545 -1.2545z"/>
  <path d="M466.4875 161.828 c0.7168 -0.5376 1.7921 -0.5376 2.509 0 0.5376 0.7168 0 1.2545 -1.2545 1.2545 -1.2545 0 -1.7921 -0.5376 -1.2545 -1.2545z"/>
  <path d="M298.9247 160.0358 c3.2258 -0.3584 8.0645 -0.3584 10.7527 0 2.6882 0.3584 0 0.7168 -5.914 0.7168 -5.914 0 -8.0645 -0.3584 -4.8387 -0.7168z"/>
  <path d="M472.7599 160.0358 c1.2545 -0.5376 2.8674 -0.3584 3.405 0.1792 0.7168 0.5376 -0.3584 1.0753 -2.3297 0.8961 -1.9713 0 -2.509 -0.5376 -1.0753 -1.0753z"/>
  <path d="M532.2581 159.4982 c-3.5842 -1.0753 -3.7634 -1.4337 -0.8961 -1.4337 1.9713 0 5.5556 0.7168 8.0645 1.4337 3.5842 1.0753 3.7634 1.4337 0.8961 1.4337 -1.9713 0 -5.5556 -0.7168 -8.0645 -1.4337z"/>
  <path d="M479.9283 158.2437 c1.0753 -0.3584 3.2258 -0.3584 4.4803 0 1.0753 0.5376 0.1792 0.8961 -2.3297 0.8961 -2.509 0 -3.405 -0.3584 -2.1505 -0.8961z"/>
  <path d="M92.1147 155.3763 c-0.5376 -1.6129 -0.1792 -7.1685 0.8961 -12.3656 l1.7921 -9.4982 -0.7168 9.4982 -0.7168 9.319 47.8495 0.3584 c26.3441 0.1792 43.9068 0.7168 38.8889 1.2545 l-8.9606 0.8961 9.8566 1.2545 c5.3763 0.7168 -4.3011 0.8961 -21.5054 0.1792 -44.2652 -1.4337 -59.4982 -1.4337 -63.0824 0.3584 -2.3297 1.0753 -3.5842 0.5376 -4.3011 -1.2545z"/>
  <path d="M491.5771 156.4516 c2.6882 -0.3584 6.9892 -0.3584 9.8566 0 2.6882 0.3584 0.3584 0.7168 -5.0179 0.7168 -5.3763 0 -7.7061 -0.3584 -4.8387 -0.7168z"/>
  <path d="M516.6667 156.4516 c1.6129 -0.3584 4.4803 -0.3584 6.2724 0 1.6129 0.5376 0.1792 0.8961 -3.2258 0.8961 -3.405 0 -4.8387 -0.3584 -3.0466 -0.8961z"/>
  <path d="M193.19 154.6595 c1.2545 -0.5376 2.8674 -0.3584 3.405 0.1792 0.7168 0.5376 -0.3584 1.0753 -2.3297 0.8961 -1.9713 0 -2.509 -0.5376 -1.0753 -1.0753z"/>
  <path d="M286.3799 127.7778 c2.1505 -0.3584 5.3763 -0.3584 7.1685 0 1.6129 0.5376 -0.1792 0.8961 -4.1219 0.7168 -3.9427 0 -5.3763 -0.3584 -3.0466 -0.7168z"/>
  <path d="M301.2545 128.3154 c0.3584 -0.3584 4.8387 -1.0753 9.6774 -1.6129 5.7348 -0.7168 7.7061 -0.5376 5.3763 0.5376 -3.405 1.4337 -16.6667 2.509 -15.0538 1.0753z"/>
  <path d="M277.4193 125.9857 c1.2545 -0.5376 2.8674 -0.3584 3.405 0.1792 0.7168 0.5376 -0.3584 1.0753 -2.3297 0.8961 -1.9713 0 -2.509 -0.5376 -1.0753 -1.0753z"/>
  <path d="M92.2939 115.5914 c-0.5376 -5.5556 -0.7168 -10.5735 -0.3584 -11.1111 0.5376 -0.3584 1.6129 3.7634 2.1505 9.319 0.7168 5.5556 0.8961 10.3943 0.3584 10.9319 -0.3584 0.5376 -1.4337 -3.5842 -2.1505 -9.1398z"/>
  <path d="M266.6667 122.5806 c-4.8387 -2.509 -9.6774 -9.1398 -8.0645 -10.9319 0.5376 -0.3584 1.4337 0.8961 2.1505 2.8674 0.5376 2.1505 4.1219 5.3763 7.7061 7.3477 3.5842 1.7921 5.914 3.405 4.8387 3.405 -0.8961 0 -3.9427 -1.0753 -6.6308 -2.6882z"/>
  <path d="M329.2115 118.9964 c3.0466 -2.8674 6.4516 -6.81 7.5269 -8.7814 1.0753 -1.9713 1.9713 -2.6882 1.9713 -1.6129 0 3.0466 -6.81 11.1111 -11.2903 13.4409 -2.6882 1.2545 -1.9713 0.3584 1.7921 -3.0466z"/>
  <path d="M256.6308 102.1505 c0 -3.405 0.3584 -4.8387 0.8961 -3.0466 0.3584 1.6129 0.3584 4.4803 0 6.2724 -0.5376 1.6129 -0.8961 0.1792 -0.8961 -3.2258z"/>
  <path d="M339.0681 99.6416 c-0.3584 -5.3763 -1.7921 -8.2437 -6.9892 -13.2616 -6.4516 -5.914 -6.4516 -6.0932 -0.8961 -2.3297 7.3477 5.0179 9.6774 9.6774 8.7814 16.8459 -0.7168 5.3763 -0.7168 5.3763 -0.8961 -1.2545z"/>
  <path d="M89.9642 98.5663 c0 -2.509 0.3584 -3.405 0.8961 -2.1505 0.3584 1.0753 0.3584 3.2258 0 4.4803 -0.5376 1.0753 -0.8961 0.1792 -0.8961 -2.3297z"/>
  <path d="M258.0645 93.7276 c0 -1.9713 4.6595 -6.4516 8.9606 -8.4229 1.4337 -0.7168 1.0753 0 -0.8961 1.4337 -1.9713 1.6129 -4.6595 4.3011 -5.7348 5.914 -1.2545 1.6129 -2.3297 2.1505 -2.3297 1.0753z"/>
  <path d="M21.5054 91.9355 c0.1792 -3.9427 14.5161 -16.6667 18.638 -16.6667 1.0753 0 -0.5376 1.4337 -3.405 3.405 -3.0466 1.7921 -7.7061 5.914 -10.3943 8.9606 -2.6882 3.2258 -4.8387 5.1971 -4.8387 4.3011z"/>
  <path d="M87.0968 90.1434 c-1.0753 -2.509 -0.8961 -2.6882 0.8961 -1.0753 1.2545 1.2545 1.7921 2.6882 1.2545 3.2258 -0.5376 0.5376 -1.6129 -0.3584 -2.1505 -2.1505z"/>
  <path d="M82.2581 82.9749 c-2.3297 -2.8674 -2.1505 -3.0466 0.7168 -0.7168 2.8674 2.3297 3.7634 3.7634 2.3297 3.7634 -0.3584 0 -1.7921 -1.4337 -3.0466 -3.0466z"/>
  <path d="M73.4767 77.957 c-2.509 -1.4337 -3.5842 -2.509 -2.509 -2.6882 0.8961 0 3.405 1.2545 5.3763 2.6882 4.3011 3.2258 2.8674 3.405 -2.8674 0z"/>
  <path d="M272.4014 79.9283 c0 -0.3584 1.4337 -1.7921 3.2258 -3.0466 2.6882 -2.3297 2.8674 -2.1505 0.5376 0.7168 -2.3297 2.8674 -3.7634 3.7634 -3.7634 2.3297z"/>
  <path d="M318.8172 76.8817 l-4.3011 -3.5842 5.0179 3.0466 c2.6882 1.6129 4.8387 3.2258 4.8387 3.5842 0 1.4337 -1.4337 0.7168 -5.5556 -3.0466z"/>
  <path d="M244.9821 77.5986 c-0.5376 -0.8961 1.7921 -1.4337 5.0179 -1.4337 3.2258 0 5.5556 0.5376 5.0179 1.4337 -0.3584 0.7168 -2.6882 1.2545 -5.0179 1.2545 -2.3297 0 -4.6595 -0.5376 -5.0179 -1.2545z"/>
  <path d="M336.9176 76.1649 c-2.8674 -3.405 -4.4803 -16.3082 -2.3297 -17.5627 1.0753 -0.7168 1.4337 0.7168 0.8961 3.2258 -0.3584 2.509 -0.1792 5.914 0.7168 7.5269 0.7168 1.7921 1.4337 3.9427 1.4337 5.0179 0.1792 0.8961 2.1505 2.1505 4.6595 2.8674 3.9427 1.0753 4.1219 1.2545 0.7168 1.4337 -2.1505 0.1792 -4.8387 -1.0753 -6.0932 -2.509z"/>
  <path d="M239.0681 74.9104 c-0.7168 -1.2545 -0.5376 -1.4337 0.7168 -0.7168 2.1505 1.2545 2.8674 2.8674 1.4337 2.8674 -0.5376 0 -1.4337 -0.8961 -2.1505 -2.1505z"/>
  <path d="M351.0753 72.2222 c4.1219 -6.2724 4.8387 -13.0824 1.6129 -16.3082 -2.3297 -2.3297 -0.8961 -4.8387 1.9713 -3.0466 3.7634 2.3297 2.1505 14.1577 -2.6882 19.7133 l-4.6595 5.3763 3.7634 -5.7348z"/>
  <path d="M45.6989 73.4767 c3.405 -1.4337 16.6667 -2.509 15.0538 -1.0753 -0.3584 0.3584 -4.6595 1.0753 -9.6774 1.6129 -5.7348 0.7168 -7.7061 0.5376 -5.3763 -0.5376z"/>
  <path d="M64.1577 74.0143 c1.2545 -0.5376 2.8674 -0.3584 3.405 0.1792 0.7168 0.5376 -0.3584 1.0753 -2.3297 0.8961 -1.9713 0 -2.509 -0.5376 -1.0753 -1.0753z"/>
  <path d="M259.4982 69.8925 c1.0753 -7.7061 -1.2545 -18.2796 -3.5842 -16.8459 -1.2545 0.8961 -1.4337 0.3584 -0.5376 -0.8961 2.3297 -3.9427 5.0179 0.8961 5.914 11.1111 0.3584 5.3763 0 10.2151 -0.8961 10.7527 -0.8961 0.5376 -1.4337 -1.2545 -0.8961 -4.1219z"/>
  <path d="M279.5699 73.4767 c-2.1505 -1.4337 -1.9713 -1.7921 1.4337 -1.7921 2.1505 0 3.9427 0.8961 3.9427 1.7921 0 2.3297 -1.9713 2.3297 -5.3763 0z"/>
  <path d="M236.5591 69.8925 c0 -1.2545 0.5376 -1.7921 1.2545 -1.2545 0.5376 0.7168 0.5376 1.7921 0 2.509 -0.7168 0.5376 -1.2545 0 -1.2545 -1.2545z"/>
  <path d="M311.8279 68.9964 c-2.6882 -3.2258 -6.0932 -3.5842 -4.3011 -0.3584 0.8961 1.4337 0.3584 1.4337 -1.6129 -0.3584 -3.405 -2.6882 -3.9427 -5.5556 -1.4337 -5.5556 1.9713 0 12.5448 8.7814 10.7527 8.9606 -0.7168 0 -2.1505 -1.2545 -3.405 -2.6882z"/>
  <path d="M285.8423 66.3082 c1.7921 -1.9713 3.5842 -3.5842 4.1219 -3.5842 0.5376 0 -0.5376 1.6129 -2.3297 3.5842 -1.7921 1.9713 -3.5842 3.5842 -4.1219 3.5842 -0.5376 0 0.5376 -1.6129 2.3297 -3.5842z"/>
  <path d="M234.9462 59.1398 c0 -4.4803 0.5376 -9.1398 1.4337 -10.5735 0.8961 -1.4337 1.2545 0.8961 0.7168 6.2724 -1.0753 12.1864 -1.9713 13.7993 -2.1505 4.3011z"/>
  <path d="M340.5018 64.3369 c0 -0.8961 0.8961 -1.2545 1.7921 -0.7168 1.0753 0.5376 1.7921 1.4337 1.7921 1.9713 0 0.3584 -0.7168 0.7168 -1.7921 0.7168 -0.8961 0 -1.7921 -0.8961 -1.7921 -1.9713z"/>
  <path d="M294.4444 61.4695 c1.6129 -0.3584 4.1219 -0.3584 5.3763 0 1.0753 0.5376 -0.1792 0.8961 -3.2258 0.8961 -2.8674 0 -3.9427 -0.3584 -2.1505 -0.8961z"/>
  <path d="M337.8136 53.7634 c0.5376 -0.8961 1.4337 -1.7921 1.9713 -1.7921 0.5376 0 0.3584 0.8961 -0.1792 1.7921 -0.5376 1.0753 -1.4337 1.7921 -1.9713 1.7921 -0.5376 0 -0.3584 -0.7168 0.1792 -1.7921z"/>
  <path d="M271.1469 48.2079 c-3.2258 -2.1505 -5.7348 -5.0179 -5.7348 -6.6308 0.1792 -2.6882 0.3584 -2.6882 1.0753 0.1792 0.3584 1.6129 2.3297 3.0466 4.3011 3.0466 1.9713 0 3.0466 0.8961 2.509 1.7921 -2.509 4.1219 10.2151 1.6129 14.5161 -2.8674 2.6882 -2.509 4.3011 -3.405 3.9427 -2.1505 -0.7168 2.3297 -11.6487 10.3943 -13.7993 10.3943 -0.5376 0 -3.7634 -1.7921 -6.81 -3.7634z"/>
  <path d="M312.3656 50 c-3.9427 -1.4337 -7.7061 -6.81 -7.7061 -10.9319 0.1792 -1.2545 1.2545 0.3584 2.6882 3.5842 3.405 7.8853 11.4695 8.0645 19.1756 0.3584 4.8387 -5.0179 5.3763 -6.4516 4.4803 -13.9785 -0.3584 -4.6595 -1.2545 -10.0358 -1.9713 -12.0072 -0.5376 -1.9713 0 -1.0753 1.4337 1.7921 3.9427 7.8853 3.5842 17.5627 -0.8961 23.1183 -5.1971 6.6308 -12.3656 10.0358 -17.2043 8.0645z"/>
  <path d="M345.8781 48.0287 c4.1219 -3.7634 6.81 -3.405 4.1219 0.7168 -0.7168 1.2545 -2.8674 2.509 -4.6595 2.6882 -3.0466 0.1792 -3.0466 -0.1792 0.5376 -3.405z"/>
  <path d="M247.8495 47.1326 c0.1792 -1.0753 -1.2545 -3.405 -3.2258 -5.0179 -3.5842 -2.8674 -3.5842 -2.8674 0 -1.0753 1.9713 0.8961 5.0179 3.2258 6.6308 5.0179 2.8674 3.2258 2.8674 3.405 -0.3584 3.405 -1.9713 0 -3.405 -1.0753 -3.0466 -2.3297z"/>
  <path d="M353.2258 47.3118 c0 -1.9713 0.5376 -2.509 1.0753 -1.0753 0.5376 1.2545 0.3584 2.8674 -0.1792 3.405 -0.5376 0.7168 -1.0753 -0.3584 -0.8961 -2.3297z"/>
  <path d="M238.3513 43.0108 c0 -1.2545 0.5376 -1.7921 1.2545 -1.2545 0.5376 0.7168 0.5376 1.7921 0 2.509 -0.7168 0.5376 -1.2545 0 -1.2545 -1.2545z"/>
  <path d="M262.5448 33.6918 c-0.5376 -2.3297 0.1792 -6.4516 1.6129 -9.4982 2.8674 -5.3763 2.8674 -5.3763 1.7921 3.5842 -1.4337 10.7527 -1.9713 11.6487 -3.405 5.914z"/>
  <path d="M292.2939 32.0789 c0 -3.5842 -2.1505 -9.4982 -4.8387 -13.4409 -3.5842 -5.3763 -3.9427 -6.2724 -1.0753 -3.7634 5.0179 4.4803 7.8853 12.3656 6.9892 18.4588 -0.7168 4.6595 -0.7168 4.4803 -1.0753 -1.2545z"/>
  <path d="M302.8674 34.0502 c0 -1.2545 0.5376 -1.7921 1.2545 -1.2545 0.5376 0.7168 0.5376 1.7921 0 2.509 -0.7168 0.5376 -1.2545 0 -1.2545 -1.2545z"/>
  <path d="M304.6595 28.6738 c0 -1.2545 0.5376 -1.7921 1.2545 -1.2545 0.5376 0.7168 0.5376 1.7921 0 2.509 -0.7168 0.5376 -1.2545 0 -1.2545 -1.2545z"/>
  <path d="M307.8853 22.4014 c1.0753 -1.9713 4.4803 -5.914 7.8853 -8.9606 l5.914 -5.3763 -6.2724 7.1685 c-3.405 3.9427 -6.9892 8.0645 -7.8853 8.9606 -0.8961 1.0753 -0.7168 0.1792 0.3584 -1.7921z"/>
  <path d="M270.2509 8.0645 c0.7168 -6.6308 3.0466 -8.2437 4.3011 -3.0466 0.5376 1.6129 -0.5376 4.4803 -2.1505 6.0932 -2.6882 2.8674 -2.8674 2.6882 -2.1505 -3.0466z"/>
  <path d="M278.4946 10.3943 c-0.7168 -1.2545 -0.5376 -1.4337 0.7168 -0.7168 1.2545 0.7168 2.1505 1.6129 2.1505 2.1505 0 1.4337 -1.6129 0.7168 -2.8674 -1.4337z"/>
  <path d="M326.1649 10.7527 c0 -1.2545 0.5376 -1.7921 1.2545 -1.2545 0.5376 0.7168 0.5376 1.7921 0 2.509 -0.7168 0.5376 -1.2545 0 -1.2545 -1.2545z"/>
  <path d="M322.2222 5.914 c1.2545 -0.5376 2.8674 -0.3584 3.405 0.1792 0.7168 0.5376 -0.3584 1.0753 -2.3297 0.8961 -1.9713 0 -2.509 -0.5376 -1.0753 -1.0753z"/>
</g>
 <g id="layer104" fill="#fdfbfb" stroke="none">
  <path d="M1315.9498 545.3405 c0.7168 -0.5376 1.7921 -0.5376 2.509 0 0.5376 0.7168 0 1.2545 -1.2545 1.2545 -1.2545 0 -1.7921 -0.5376 -1.2545 -1.2545z"/>
  <path d="M1371.5054 525.6273 c1.6129 -0.3584 4.1219 -0.3584 5.3763 0 1.0753 0.5376 -0.1792 0.8961 -3.2258 0.8961 -2.8674 0 -3.9427 -0.3584 -2.1505 -0.8961z"/>
  <path d="M1456.9893 504.6595 c0 -0.3584 1.4337 -1.7921 3.2258 -3.0466 2.6882 -2.3297 2.8674 -2.1505 0.5376 0.7168 -2.3297 2.8674 -3.7634 3.7634 -3.7634 2.3297z"/>
  <path d="M1274.1935 501.7921 c0 -1.2545 0.5376 -1.7921 1.2545 -1.2545 0.5376 0.7168 0.5376 1.7921 0 2.509 -0.7168 0.5376 -1.2545 0 -1.2545 -1.2545z"/>
  <path d="M1275.9856 495.6989 c0 -0.3584 1.4337 -1.7921 3.2258 -3.0466 2.6882 -2.3297 2.8674 -2.1505 0.5376 0.7168 -2.3297 2.8674 -3.7634 3.7634 -3.7634 2.3297z"/>
  <path d="M1342.8315 452.1505 c0.7168 -0.5376 1.7921 -0.5376 2.509 0 0.5376 0.7168 0 1.2545 -1.2545 1.2545 -1.2545 0 -1.7921 -0.5376 -1.2545 -1.2545z"/>
  <path d="M1357.1685 450.3584 c0.7168 -0.5376 1.7921 -0.5376 2.509 0 0.5376 0.7168 0 1.2545 -1.2545 1.2545 -1.2545 0 -1.7921 -0.5376 -1.2545 -1.2545z"/>
  <path d="M1393.0107 450.3584 c1.6129 -0.3584 4.4803 -0.3584 6.2724 0 1.6129 0.5376 0.1792 0.8961 -3.2258 0.8961 -3.405 0 -4.8387 -0.3584 -3.0466 -0.8961z"/>
  <path d="M1492.8315 435.4839 c0 -1.2545 0.5376 -1.7921 1.2545 -1.2545 0.5376 0.7168 0.5376 1.7921 0 2.509 -0.7168 0.5376 -1.2545 0 -1.2545 -1.2545z"/>
  <path d="M789.9642 423.4767 c1.0753 -0.3584 3.2258 -0.3584 4.4803 0 1.0753 0.5376 0.1792 0.8961 -2.3297 0.8961 -2.509 0 -3.405 -0.3584 -2.1505 -0.8961z"/>
  <path d="M801.6129 423.4767 c0.7168 -0.5376 1.7921 -0.5376 2.509 0 0.5376 0.7168 0 1.2545 -1.2545 1.2545 -1.2545 0 -1.7921 -0.5376 -1.2545 -1.2545z"/>
  <path d="M1076.7025 423.4767 c1.0753 -0.3584 3.2258 -0.3584 4.4803 0 1.0753 0.5376 0.1792 0.8961 -2.3297 0.8961 -2.509 0 -3.405 -0.3584 -2.1505 -0.8961z"/>
  <path d="M1351.7921 423.4767 c0.7168 -0.5376 1.7921 -0.5376 2.509 0 0.5376 0.7168 0 1.2545 -1.2545 1.2545 -1.2545 0 -1.7921 -0.5376 -1.2545 -1.2545z"/>
  <path d="M1373.2975 423.4767 c0.7168 -0.5376 1.7921 -0.5376 2.509 0 0.5376 0.7168 0 1.2545 -1.2545 1.2545 -1.2545 0 -1.7921 -0.5376 -1.2545 -1.2545z"/>
  <path d="M777.4194 421.6846 c1.2545 -0.5376 2.8674 -0.3584 3.405 0.1792 0.7168 0.5376 -0.3584 1.0753 -2.3297 0.8961 -1.9713 0 -2.509 -0.5376 -1.0753 -1.0753z"/>
  <path d="M810.5735 421.6846 c0.7168 -0.5376 1.7921 -0.5376 2.509 0 0.5376 0.7168 0 1.2545 -1.2545 1.2545 -1.2545 0 -1.7921 -0.5376 -1.2545 -1.2545z"/>
  <path d="M815.9498 421.6846 c0.7168 -0.5376 1.7921 -0.5376 2.509 0 0.5376 0.7168 0 1.2545 -1.2545 1.2545 -1.2545 0 -1.7921 -0.5376 -1.2545 -1.2545z"/>
  <path d="M1059.6774 421.6846 c0.7168 -0.5376 1.7921 -0.5376 2.509 0 0.5376 0.7168 0 1.2545 -1.2545 1.2545 -1.2545 0 -1.7921 -0.5376 -1.2545 -1.2545z"/>
  <path d="M1381.3619 421.6846 c1.0753 -0.3584 3.2258 -0.3584 4.4803 0 1.0753 0.5376 0.1792 0.8961 -2.3297 0.8961 -2.509 0 -3.405 -0.3584 -2.1505 -0.8961z"/>
  <path d="M1422.9391 421.1469 c0 -1.2545 0.5376 -1.7921 1.2545 -1.2545 0.5376 0.7168 0.5376 1.7921 0 2.509 -0.7168 0.5376 -1.2545 0 -1.2545 -1.2545z"/>
  <path d="M1106.2723 419.8925 c0.7168 -0.5376 1.7921 -0.5376 2.509 0 0.5376 0.7168 0 1.2545 -1.2545 1.2545 -1.2545 0 -1.7921 -0.5376 -1.2545 -1.2545z"/>
  <path d="M1043.5483 418.1003 c0.7168 -0.5376 1.7921 -0.5376 2.509 0 0.5376 0.7168 0 1.2545 -1.2545 1.2545 -1.2545 0 -1.7921 -0.5376 -1.2545 -1.2545z"/>
  <path d="M1493.1899 408.6021 c0 -2.509 0.3584 -3.405 0.8961 -2.1505 0.3584 1.0753 0.3584 3.2258 0 4.4803 -0.5376 1.0753 -0.8961 0.1792 -0.8961 -2.3297z"/>
  <path d="M1011.4695 404.6595 c-0.7168 -1.2545 -0.5376 -1.4337 0.7168 -0.7168 1.2545 0.7168 2.1505 1.6129 2.1505 2.1505 0 1.4337 -1.6129 0.7168 -2.8674 -1.4337z"/>
  <path d="M710.3943 392.1147 c-0.7168 -1.2545 -0.5376 -1.4337 0.7168 -0.7168 2.1505 1.2545 2.8674 2.8674 1.4337 2.8674 -0.5376 0 -1.4337 -0.8961 -2.1505 -2.1505z"/>
  <path d="M888.8889 384.4086 c3.405 -3.405 6.4516 -6.2724 6.9892 -6.2724 0.5376 0 -1.7921 2.8674 -5.1971 6.2724 -3.405 3.405 -6.4516 6.2724 -6.9892 6.2724 -0.5376 0 1.7921 -2.8674 5.1971 -6.2724z"/>
  <path d="M1258.7814 379.5699 c-0.7168 -1.2545 -0.5376 -1.4337 0.7168 -0.7168 2.1505 1.2545 2.8674 2.8674 1.4337 2.8674 -0.5376 0 -1.4337 -0.8961 -2.1505 -2.1505z"/>
  <path d="M640.5018 333.3333 c0 -17.2043 0.3584 -24.3728 0.5376 -15.5914 0.3584 8.6021 0.3584 22.5806 0 31.362 -0.1792 8.6021 -0.5376 1.4337 -0.5376 -15.7706z"/>
  <path d="M1062.724 351.4337 c-9.8566 -1.9713 -16.129 -6.2724 -27.5986 -18.1004 -17.2043 -18.2796 -22.043 -35.3047 -16.4875 -57.3477 8.4229 -32.9749 37.4552 -51.4337 70.2509 -44.8029 19.1756 3.9427 38.3513 17.9211 41.3979 30.466 0.7168 2.3297 2.1505 5.3763 3.2258 6.6308 1.2545 1.2545 2.8674 8.0645 3.405 15.233 3.2258 34.5878 -13.4409 57.7061 -48.5663 66.8459 -10.9319 2.8674 -15.5914 3.0466 -25.6272 1.0753z"/>
  <path d="M1352.1505 351.7921 c-1.9713 -0.3584 -6.4516 -1.6129 -10.0358 -2.509 -16.6667 -4.3011 -32.7957 -21.6846 -38.5305 -41.7563 -8.2437 -29.0323 5.914 -59.1398 33.871 -72.043 9.4982 -4.4803 13.2616 -5.1971 26.3441 -5.1971 12.9032 0 16.4875 0.7168 24.1935 4.8387 28.853 15.0538 41.7563 51.9713 29.0323 82.4373 -1.4337 3.2258 -7.3477 10.7527 -13.0824 16.8459 -7.8853 8.0645 -12.9032 11.6487 -19.534 13.7993 -9.8566 3.2258 -26.7025 5.0179 -32.2581 3.5842z"/>
  <path d="M780.4659 348.9247 c-20.2509 -6.81 -35.4839 -20.6093 -42.1147 -38.5305 -5.0179 -13.0824 -4.3011 -33.3333 1.4337 -44.4444 6.0932 -11.828 19.3548 -25.2688 30.466 -30.6452 8.7814 -4.3011 12.3656 -5.0179 25.448 -5.0179 12.0072 0 16.8459 0.8961 23.2975 4.1219 24.7312 12.1864 35.8423 27.7778 37.276 51.9713 0.5376 11.1111 0 15.7706 -3.2258 24.0143 -5.3763 14.5161 -17.9211 28.853 -29.9283 34.767 -11.6487 5.7348 -31.362 7.5269 -42.6523 3.7634z"/>
  <path d="M665.4122 316.3082 c0 -3.9427 0.3584 -5.3763 0.7168 -3.0466 0.3584 2.1505 0.3584 5.3763 0 7.1685 -0.5376 1.6129 -0.8961 -0.1792 -0.7168 -4.1219z"/>
  <path d="M1491.2186 312.3656 c-0.1792 -4.1219 0.5376 -7.8853 1.2545 -8.4229 0.7168 -0.3584 1.0753 2.1505 0.7168 5.7348 -0.8961 10.0358 -1.7921 11.1111 -1.9713 2.6882z"/>
  <path d="M663.0825 306.4516 c0 -1.2545 0.5376 -1.7921 1.2545 -1.2545 0.5376 0.7168 0.5376 1.7921 0 2.509 -0.7168 0.5376 -1.2545 0 -1.2545 -1.2545z"/>
  <path d="M1227.5985 304.6595 c0 -1.2545 0.5376 -1.7921 1.2545 -1.2545 0.5376 0.7168 0.5376 1.7921 0 2.509 -0.7168 0.5376 -1.2545 0 -1.2545 -1.2545z"/>
  <path d="M661.8279 289.4265 c0 -5.914 0.3584 -8.0645 0.7168 -4.8387 0.3584 3.2258 0.3584 8.0645 0 10.7527 -0.3584 2.6882 -0.7168 0 -0.7168 -5.914z"/>
  <path d="M93.19 295.6989 c0 -1.2545 0.5376 -1.7921 1.2545 -1.2545 0.5376 0.7168 0.5376 1.7921 0 2.509 -0.7168 0.5376 -1.2545 0 -1.2545 -1.2545z"/>
  <path d="M1494.6237 292.1147 c0 -1.2545 0.5376 -1.7921 1.2545 -1.2545 0.5376 0.7168 0.5376 1.7921 0 2.509 -0.7168 0.5376 -1.2545 0 -1.2545 -1.2545z"/>
  <path d="M1227.5985 283.1541 c0 -1.2545 0.5376 -1.7921 1.2545 -1.2545 0.5376 0.7168 0.5376 1.7921 0 2.509 -0.7168 0.5376 -1.2545 0 -1.2545 -1.2545z"/>
  <path d="M926.5233 275.9857 c0 -1.2545 0.5376 -1.7921 1.2545 -1.2545 0.5376 0.7168 0.5376 1.7921 0 2.509 -0.7168 0.5376 -1.2545 0 -1.2545 -1.2545z"/>
  <path d="M1229.3906 272.4014 c0 -1.2545 0.5376 -1.7921 1.2545 -1.2545 0.5376 0.7168 0.5376 1.7921 0 2.509 -0.7168 0.5376 -1.2545 0 -1.2545 -1.2545z"/>
  <path d="M924.7312 263.4409 c0 -1.2545 0.5376 -1.7921 1.2545 -1.2545 0.5376 0.7168 0.5376 1.7921 0 2.509 -0.7168 0.5376 -1.2545 0 -1.2545 -1.2545z"/>
  <path d="M1231.1827 263.4409 c0 -1.2545 0.5376 -1.7921 1.2545 -1.2545 0.5376 0.7168 0.5376 1.7921 0 2.509 -0.7168 0.5376 -1.2545 0 -1.2545 -1.2545z"/>
  <path d="M1491.0394 261.6487 c0 -1.2545 0.5376 -1.7921 1.2545 -1.2545 0.5376 0.7168 0.5376 1.7921 0 2.509 -0.7168 0.5376 -1.2545 0 -1.2545 -1.2545z"/>
  <path d="M93.5484 248.2079 c0 -2.8674 0.3584 -3.9427 0.8961 -2.1505 0.3584 1.6129 0.3584 4.1219 0 5.3763 -0.5376 1.0753 -0.8961 -0.1792 -0.8961 -3.2258z"/>
  <path d="M634.4086 250.8961 c0 -1.2545 0.5376 -1.7921 1.2545 -1.2545 0.5376 0.7168 0.5376 1.7921 0 2.509 -0.7168 0.5376 -1.2545 0 -1.2545 -1.2545z"/>
  <path d="M922.9391 247.3118 c0 -1.2545 0.5376 -1.7921 1.2545 -1.2545 0.5376 0.7168 0.5376 1.7921 0 2.509 -0.7168 0.5376 -1.2545 0 -1.2545 -1.2545z"/>
  <path d="M93.19 238.3513 c0 -1.2545 0.5376 -1.7921 1.2545 -1.2545 0.5376 0.7168 0.5376 1.7921 0 2.509 -0.7168 0.5376 -1.2545 0 -1.2545 -1.2545z"/>
  <path d="M923.2975 222.2222 c0 -2.509 0.3584 -3.405 0.8961 -2.1505 0.3584 1.0753 0.3584 3.2258 0 4.4803 -0.5376 1.0753 -0.8961 0.1792 -0.8961 -2.3297z"/>
  <path d="M1189.9641 222.2222 c0 -1.2545 0.5376 -1.7921 1.2545 -1.2545 0.5376 0.7168 0.5376 1.7921 0 2.509 -0.7168 0.5376 -1.2545 0 -1.2545 -1.2545z"/>
  <path d="M1187.0968 216.4875 c-0.7168 -1.2545 -0.5376 -1.4337 0.7168 -0.7168 2.1505 1.2545 2.8674 2.8674 1.4337 2.8674 -0.5376 0 -1.4337 -0.8961 -2.1505 -2.1505z"/>
  <path d="M923.2975 206.9892 c0 -2.8674 0.3584 -3.9427 0.8961 -2.1505 0.3584 1.6129 0.3584 4.1219 0 5.3763 -0.5376 1.0753 -0.8961 -0.1792 -0.8961 -3.2258z"/>
  <path d="M270.6093 200.7168 c0 -1.2545 0.5376 -1.7921 1.2545 -1.2545 0.5376 0.7168 0.5376 1.7921 0 2.509 -0.7168 0.5376 -1.2545 0 -1.2545 -1.2545z"/>
  <path d="M1176.3441 200.3584 c-0.7168 -1.2545 -0.5376 -1.4337 0.7168 -0.7168 2.1505 1.2545 2.8674 2.8674 1.4337 2.8674 -0.5376 0 -1.4337 -0.8961 -2.1505 -2.1505z"/>
  <path d="M1263.4408 201.7921 c0 -0.3584 1.4337 -1.7921 3.2258 -3.0466 2.6882 -2.3297 2.8674 -2.1505 0.5376 0.7168 -2.3297 2.8674 -3.7634 3.7634 -3.7634 2.3297z"/>
  <path d="M923.1183 197.8495 c0 -1.9713 0.5376 -2.509 1.0753 -1.0753 0.5376 1.2545 0.3584 2.8674 -0.1792 3.405 -0.5376 0.7168 -1.0753 -0.3584 -0.8961 -2.3297z"/>
  <path d="M1272.4014 192.8315 c0 -0.3584 1.4337 -1.7921 3.2258 -3.0466 2.6882 -2.3297 2.8674 -2.1505 0.5376 0.7168 -2.3297 2.8674 -3.7634 3.7634 -3.7634 2.3297z"/>
  <path d="M990.1434 189.9642 c0.5376 -0.8961 1.4337 -1.7921 1.9713 -1.7921 0.5376 0 0.3584 0.8961 -0.1792 1.7921 -0.5376 1.0753 -1.4337 1.7921 -1.9713 1.7921 -0.5376 0 -0.3584 -0.7168 0.1792 -1.7921z"/>
  <path d="M1165.5914 189.6057 c-0.7168 -1.2545 -0.5376 -1.4337 0.7168 -0.7168 2.1505 1.2545 2.8674 2.8674 1.4337 2.8674 -0.5376 0 -1.4337 -0.8961 -2.1505 -2.1505z"/>
  <path d="M1109.1398 161.828 c-2.3297 -2.8674 -2.1505 -3.0466 0.7168 -0.7168 2.8674 2.3297 3.7634 3.7634 2.3297 3.7634 -0.3584 0 -1.7921 -1.4337 -3.0466 -3.0466z"/>
  <path d="M1393.0107 161.828 c1.6129 -0.3584 4.1219 -0.3584 5.3763 0 1.0753 0.5376 -0.1792 0.8961 -3.2258 0.8961 -2.8674 0 -3.9427 -0.3584 -2.1505 -0.8961z"/>
  <path d="M1330.2867 160.0358 c0.7168 -0.5376 1.7921 -0.5376 2.509 0 0.5376 0.7168 0 1.2545 -1.2545 1.2545 -1.2545 0 -1.7921 -0.5376 -1.2545 -1.2545z"/>
  <path d="M1097.3118 158.2437 c1.6129 -0.3584 4.1219 -0.3584 5.3763 0 1.0753 0.5376 -0.1792 0.8961 -3.2258 0.8961 -2.8674 0 -3.9427 -0.3584 -2.1505 -0.8961z"/>
  <path d="M1341.0394 158.2437 c0.7168 -0.5376 1.7921 -0.5376 2.509 0 0.5376 0.7168 0 1.2545 -1.2545 1.2545 -1.2545 0 -1.7921 -0.5376 -1.2545 -1.2545z"/>
  <path d="M930.1075 155.914 c0 -1.2545 0.5376 -1.7921 1.2545 -1.2545 0.5376 0.7168 0.5376 1.7921 0 2.509 -0.7168 0.5376 -1.2545 0 -1.2545 -1.2545z"/>
  <path d="M933.6918 136.2007 c0 -1.2545 0.5376 -1.7921 1.2545 -1.2545 0.5376 0.7168 0.5376 1.7921 0 2.509 -0.7168 0.5376 -1.2545 0 -1.2545 -1.2545z"/>
  <path d="M889.7849 123.6559 c0.5376 -0.8961 1.4337 -1.7921 1.9713 -1.7921 0.5376 0 0.3584 0.8961 -0.1792 1.7921 -0.5376 1.0753 -1.4337 1.7921 -1.9713 1.7921 -0.5376 0 -0.3584 -0.7168 0.1792 -1.7921z"/>
  <path d="M935.6631 116.129 c0 -5.0179 0.3584 -5.3763 1.6129 -2.3297 2.1505 5.0179 2.1505 8.0645 0 8.0645 -0.8961 0 -1.7921 -2.6882 -1.6129 -5.7348z"/>
</g>

</svg>